<?xml version="1.0" standalone="no"?>
<!DOCTYPE svg PUBLIC "-//W3C//DTD SVG 20010904//EN"
 "http://www.w3.org/TR/2001/REC-SVG-20010904/DTD/svg10.dtd">
<svg version="1.0" xmlns="http://www.w3.org/2000/svg"
 width="40.000000pt" height="40.000000pt" viewBox="0 0 40.000000 40.000000"
 preserveAspectRatio="xMidYMid meet">

<g transform="translate(0.000000,40.000000) scale(0.100000,-0.100000)"
fill="#000000" stroke="none">
<path d="M75 374 c-74 -38 -74 -40 12 -126 l77 -78 -34 -37 -35 -38 38 35 38
35 77 -79 76 -78 23 29 c27 34 46 86 40 110 -3 13 -5 11 -6 -6 -1 -33 -40
-111 -55 -111 -6 0 -43 32 -81 70 l-69 70 74 75 c40 40 77 72 82 69 14 -9 41
-67 49 -104 6 -33 7 -33 8 -6 0 15 -11 51 -26 78 l-27 50 28 25 c16 13 26 27
22 30 -3 3 -15 -6 -27 -20 -25 -32 -32 -33 -69 -7 -16 11 -43 22 -62 25 -28 4
-29 4 -8 -3 47 -16 90 -42 90 -55 0 -7 -30 -43 -68 -80 l-68 -67 -72 73 c-39
40 -72 76 -72 79 0 10 58 40 95 49 27 6 28 7 5 8 -14 0 -38 -6 -55 -15z"/>
<path d="M46 91 c-16 -17 -16 -19 4 -24 11 -3 20 -1 20 4 0 5 -5 9 -11 9 -8 0
-8 5 1 15 18 22 6 18 -14 -4z"/>
<path d="M87 58 c-10 -11 -17 -22 -14 -24 2 -2 12 5 22 16 23 26 16 33 -8 8z"/>
</g>
</svg>
